<svg width="799" height="267" viewBox="0 0 799 267" fill="none" xmlns="http://www.w3.org/2000/svg">
<rect width="799" height="267" rx="50" fill="#F4F0EC"/>
<path d="M230.725 172L230.775 171.75L231.375 171.525C232.142 171.208 232.609 170.642 232.775 169.825L234 163.25C234.134 162.55 234.275 161.775 234.425 160.925C234.592 160.058 234.75 159.2 234.9 158.35C235.05 157.483 235.184 156.7 235.3 156H234.225C233.625 156 233.109 156.108 232.675 156.325C232.242 156.542 231.85 156.892 231.5 157.375L229.5 160.1H229.25L230.175 155.5H244.025L243.225 160.1H242.975L242.05 157.575C241.684 156.525 240.925 156 239.775 156H238.75L237.2 164.225C237.034 165.075 236.859 165.992 236.675 166.975C236.509 167.942 236.342 168.883 236.175 169.8C236.025 170.667 236.35 171.267 237.15 171.6L237.475 171.75L237.425 172H230.725ZM243.716 172.15L243.566 172L245.841 161.1C245.974 160.467 246.091 159.9 246.191 159.4C246.291 158.883 246.399 158.308 246.516 157.675C246.649 156.958 246.374 156.483 245.691 156.25L245.291 156.125L245.341 155.875L250.116 154.475L250.291 154.65L248.591 162.625C249.424 161.758 250.308 161.042 251.241 160.475C252.191 159.892 253.066 159.6 253.866 159.6C254.399 159.6 254.833 159.767 255.166 160.1C255.516 160.417 255.691 160.917 255.691 161.6C255.691 161.95 255.658 162.317 255.591 162.7C255.524 163.067 255.441 163.45 255.341 163.85L254.091 168.95C254.024 169.267 253.958 169.542 253.891 169.775C253.824 169.992 253.791 170.167 253.791 170.3C253.791 170.65 253.941 170.825 254.241 170.825C254.674 170.825 255.283 170.458 256.066 169.725L256.291 169.95C255.891 170.567 255.349 171.125 254.666 171.625C253.983 172.125 253.208 172.375 252.341 172.375C251.791 172.375 251.366 172.25 251.066 172C250.766 171.733 250.616 171.367 250.616 170.9C250.616 170.55 250.658 170.192 250.741 169.825C250.824 169.442 250.924 169.05 251.041 168.65L252.166 164.25C252.283 163.8 252.383 163.392 252.466 163.025C252.566 162.642 252.616 162.317 252.616 162.05C252.616 161.467 252.341 161.175 251.791 161.175C250.974 161.175 249.899 161.842 248.566 163.175L247.816 166.65C247.599 167.667 247.408 168.592 247.241 169.425C247.091 170.242 246.941 171.1 246.791 172L243.716 172.15ZM262.514 172.375C261.264 172.375 260.247 171.967 259.464 171.15C258.681 170.333 258.289 169.175 258.289 167.675C258.289 166.608 258.472 165.592 258.839 164.625C259.206 163.658 259.714 162.8 260.364 162.05C261.031 161.283 261.797 160.683 262.664 160.25C263.531 159.817 264.472 159.6 265.489 159.6C266.539 159.6 267.339 159.842 267.889 160.325C268.456 160.792 268.739 161.417 268.739 162.2C268.739 162.85 268.431 163.492 267.814 164.125C267.214 164.758 266.364 165.333 265.264 165.85C264.164 166.35 262.872 166.733 261.389 167C261.406 168.15 261.656 168.992 262.139 169.525C262.622 170.058 263.289 170.325 264.139 170.325C264.856 170.325 265.514 170.133 266.114 169.75C266.714 169.35 267.222 168.883 267.639 168.35L267.889 168.525C267.556 169.175 267.122 169.792 266.589 170.375C266.072 170.958 265.472 171.442 264.789 171.825C264.106 172.192 263.347 172.375 262.514 172.375ZM265.314 160.275C264.931 160.275 264.514 160.442 264.064 160.775C263.631 161.108 263.214 161.567 262.814 162.15C262.431 162.717 262.106 163.375 261.839 164.125C261.589 164.858 261.439 165.642 261.389 166.475C263.222 165.975 264.522 165.317 265.289 164.5C266.072 163.683 266.464 162.758 266.464 161.725C266.464 161.225 266.356 160.858 266.139 160.625C265.922 160.392 265.647 160.275 265.314 160.275ZM278.633 172.375C277.966 172.375 277.375 172.117 276.858 171.6C276.358 171.083 276.108 170.183 276.108 168.9C276.108 168.033 276.275 167.158 276.608 166.275C276.941 165.392 277.383 164.558 277.933 163.775C278.5 162.975 279.133 162.258 279.833 161.625C280.55 160.992 281.291 160.5 282.058 160.15C282.825 159.783 283.575 159.6 284.308 159.6C284.641 159.6 284.958 159.65 285.258 159.75L285.633 157.875C285.783 157.125 285.508 156.617 284.808 156.35L284.258 156.125L284.308 155.875L289.158 154.475L289.333 154.65L286.258 169.2C286.208 169.467 286.166 169.692 286.133 169.875C286.116 170.042 286.108 170.208 286.108 170.375C286.108 170.725 286.25 170.9 286.533 170.9C286.733 170.9 287 170.8 287.333 170.6C287.683 170.383 288.033 170.067 288.383 169.65L288.658 169.9C288.258 170.567 287.716 171.15 287.033 171.65C286.35 172.133 285.625 172.375 284.858 172.375C284.308 172.375 283.875 172.2 283.558 171.85C283.241 171.483 283.083 171.017 283.083 170.45C283.083 170.167 283.108 169.833 283.158 169.45C282.475 170.317 281.725 171.025 280.908 171.575C280.108 172.108 279.35 172.375 278.633 172.375ZM279.158 168.1C279.158 168.933 279.291 169.533 279.558 169.9C279.825 170.267 280.175 170.45 280.608 170.45C281.375 170.45 282.258 169.867 283.258 168.7C283.275 168.617 283.291 168.525 283.308 168.425L284.833 161.05C284.416 160.667 283.925 160.475 283.358 160.475C282.941 160.475 282.55 160.575 282.183 160.775C281.833 160.958 281.5 161.225 281.183 161.575C280.8 162.008 280.45 162.592 280.133 163.325C279.833 164.042 279.591 164.825 279.408 165.675C279.241 166.508 279.158 167.317 279.158 168.1ZM294.605 172.375C293.355 172.375 292.338 171.967 291.555 171.15C290.772 170.333 290.38 169.175 290.38 167.675C290.38 166.608 290.563 165.592 290.93 164.625C291.297 163.658 291.805 162.8 292.455 162.05C293.122 161.283 293.888 160.683 294.755 160.25C295.622 159.817 296.563 159.6 297.58 159.6C298.63 159.6 299.43 159.842 299.98 160.325C300.547 160.792 300.83 161.417 300.83 162.2C300.83 162.85 300.522 163.492 299.905 164.125C299.305 164.758 298.455 165.333 297.355 165.85C296.255 166.35 294.963 166.733 293.48 167C293.497 168.15 293.747 168.992 294.23 169.525C294.713 170.058 295.38 170.325 296.23 170.325C296.947 170.325 297.605 170.133 298.205 169.75C298.805 169.35 299.313 168.883 299.73 168.35L299.98 168.525C299.647 169.175 299.213 169.792 298.68 170.375C298.163 170.958 297.563 171.442 296.88 171.825C296.197 172.192 295.438 172.375 294.605 172.375ZM297.405 160.275C297.022 160.275 296.605 160.442 296.155 160.775C295.722 161.108 295.305 161.567 294.905 162.15C294.522 162.717 294.197 163.375 293.93 164.125C293.68 164.858 293.53 165.642 293.48 166.475C295.313 165.975 296.613 165.317 297.38 164.5C298.163 163.683 298.555 162.758 298.555 161.725C298.555 161.225 298.447 160.858 298.23 160.625C298.013 160.392 297.738 160.275 297.405 160.275ZM304.606 172.375C304.09 172.375 303.656 172.242 303.306 171.975C302.973 171.692 302.806 171.283 302.806 170.75C302.806 170.417 302.84 170.058 302.906 169.675C302.973 169.275 303.048 168.85 303.131 168.4L304.856 160.5H302.781L302.856 160.2L303.756 160.1C304.223 160.05 304.631 159.933 304.981 159.75C305.331 159.567 305.665 159.308 305.981 158.975L308.381 156.55H308.756L308.056 159.975H310.781L310.656 160.5H307.931L306.206 168.825C306.14 169.142 306.09 169.417 306.056 169.65C306.023 169.867 306.006 170.05 306.006 170.2C306.006 170.367 306.056 170.5 306.156 170.6C306.256 170.7 306.365 170.75 306.481 170.75C306.715 170.75 306.965 170.658 307.231 170.475C307.498 170.275 307.831 169.983 308.231 169.6L308.531 169.85C308.115 170.467 307.573 171.042 306.906 171.575C306.24 172.108 305.473 172.375 304.606 172.375ZM313.658 172.375C313.191 172.375 312.749 172.267 312.333 172.05C311.916 171.833 311.574 171.475 311.308 170.975C311.058 170.475 310.933 169.817 310.933 169C310.933 168.117 311.108 167.233 311.458 166.35C311.808 165.45 312.274 164.6 312.858 163.8C313.441 162.983 314.091 162.267 314.808 161.65C315.524 161.017 316.266 160.517 317.033 160.15C317.799 159.783 318.524 159.6 319.208 159.6C319.541 159.6 319.849 159.667 320.133 159.8C320.433 159.917 320.716 160.083 320.983 160.3L323.008 159.525L323.208 159.65L321.033 169.225C320.916 169.692 320.858 170.075 320.858 170.375C320.858 170.725 321.016 170.9 321.333 170.9C321.566 170.9 321.833 170.792 322.133 170.575C322.449 170.358 322.808 170.067 323.208 169.7L323.408 169.9C323.158 170.3 322.841 170.692 322.458 171.075C322.091 171.442 321.674 171.75 321.208 172C320.758 172.25 320.274 172.375 319.758 172.375C319.191 172.375 318.733 172.208 318.383 171.875C318.033 171.525 317.858 170.992 317.858 170.275C317.858 170.042 317.866 169.817 317.883 169.6C317.216 170.35 316.508 171 315.758 171.55C315.024 172.1 314.324 172.375 313.658 172.375ZM313.883 167.875C313.883 168.758 314.024 169.4 314.308 169.8C314.608 170.183 314.999 170.375 315.483 170.375C315.883 170.375 316.283 170.25 316.683 170C317.083 169.75 317.516 169.392 317.983 168.925C318.016 168.725 318.058 168.517 318.108 168.3L319.683 161.1C319.466 160.833 319.208 160.65 318.908 160.55C318.608 160.45 318.341 160.4 318.108 160.4C317.391 160.4 316.641 160.825 315.858 161.675C315.241 162.358 314.758 163.258 314.408 164.375C314.058 165.492 313.883 166.658 313.883 167.875ZM329.673 158.2C329.206 158.2 328.798 158.05 328.448 157.75C328.114 157.433 327.948 157.017 327.948 156.5C327.948 155.917 328.148 155.442 328.548 155.075C328.964 154.692 329.431 154.5 329.948 154.5C330.448 154.5 330.856 154.658 331.173 154.975C331.489 155.292 331.648 155.7 331.648 156.2C331.648 156.767 331.448 157.242 331.048 157.625C330.648 158.008 330.189 158.2 329.673 158.2ZM327.348 172.375C326.831 172.375 326.406 172.242 326.073 171.975C325.739 171.708 325.573 171.317 325.573 170.8C325.573 170.5 325.606 170.142 325.673 169.725C325.739 169.308 325.814 168.892 325.898 168.475L327.073 162.85C327.223 162.167 326.981 161.683 326.348 161.4L325.948 161.2L325.973 160.925L330.673 159.575L330.923 159.8L328.973 168.85C328.906 169.15 328.856 169.408 328.823 169.625C328.789 169.825 328.773 170.025 328.773 170.225C328.773 170.592 328.939 170.775 329.273 170.775C329.523 170.775 329.773 170.7 330.023 170.55C330.273 170.383 330.589 170.117 330.973 169.75L331.198 169.975C330.781 170.592 330.248 171.15 329.598 171.65C328.964 172.133 328.214 172.375 327.348 172.375ZM334.826 172.375C334.276 172.375 333.835 172.233 333.501 171.95C333.185 171.667 333.026 171.258 333.026 170.725C333.026 170.425 333.06 170.067 333.126 169.65C333.193 169.217 333.293 168.667 333.426 168L334.851 161.1C334.985 160.467 335.093 159.892 335.176 159.375C335.276 158.858 335.385 158.275 335.501 157.625C335.618 156.958 335.351 156.508 334.701 156.275L334.276 156.125L334.326 155.875L339.226 154.475L339.376 154.65L336.301 169.15C336.251 169.4 336.21 169.625 336.176 169.825C336.143 170.008 336.126 170.167 336.126 170.3C336.126 170.667 336.285 170.85 336.601 170.85C337.018 170.85 337.626 170.475 338.426 169.725L338.676 169.925C338.26 170.542 337.735 171.108 337.101 171.625C336.468 172.125 335.71 172.375 334.826 172.375ZM343.487 172.375C342.437 172.375 341.587 172.167 340.937 171.75C340.287 171.333 339.962 170.742 339.962 169.975C339.962 169.575 340.104 169.225 340.387 168.925C340.671 168.625 341.037 168.475 341.487 168.475C342.321 168.475 342.837 168.983 343.037 170L343.187 170.7C343.271 171.05 343.371 171.333 343.487 171.55C343.621 171.767 343.871 171.875 344.237 171.875C344.654 171.875 345.021 171.7 345.337 171.35C345.654 171 345.812 170.517 345.812 169.9C345.812 169.433 345.662 168.983 345.362 168.55C345.079 168.117 344.596 167.642 343.912 167.125C343.229 166.592 342.679 166.042 342.262 165.475C341.846 164.892 341.637 164.2 341.637 163.4C341.637 162.7 341.812 162.067 342.162 161.5C342.529 160.917 343.054 160.458 343.737 160.125C344.421 159.775 345.229 159.6 346.162 159.6C347.246 159.6 348.096 159.817 348.712 160.25C349.346 160.683 349.662 161.242 349.662 161.925C349.662 162.292 349.554 162.6 349.337 162.85C349.121 163.083 348.796 163.2 348.362 163.2C347.562 163.2 347.021 162.717 346.737 161.75L346.487 161.05C346.404 160.717 346.304 160.483 346.187 160.35C346.071 160.217 345.887 160.15 345.637 160.15C345.371 160.15 345.096 160.3 344.812 160.6C344.529 160.883 344.387 161.342 344.387 161.975C344.387 162.575 344.562 163.125 344.912 163.625C345.279 164.108 345.821 164.617 346.537 165.15C347.271 165.7 347.804 166.233 348.137 166.75C348.487 167.267 348.662 167.892 348.662 168.625C348.662 169.308 348.462 169.933 348.062 170.5C347.662 171.067 347.079 171.525 346.312 171.875C345.546 172.208 344.604 172.375 343.487 172.375ZM359.786 172.375C359.319 172.375 358.877 172.267 358.461 172.05C358.044 171.833 357.702 171.475 357.436 170.975C357.186 170.475 357.061 169.817 357.061 169C357.061 168.117 357.236 167.233 357.586 166.35C357.936 165.45 358.402 164.6 358.986 163.8C359.569 162.983 360.219 162.267 360.936 161.65C361.652 161.017 362.394 160.517 363.161 160.15C363.927 159.783 364.652 159.6 365.336 159.6C365.669 159.6 365.977 159.667 366.261 159.8C366.561 159.917 366.844 160.083 367.111 160.3L369.136 159.525L369.336 159.65L367.161 169.225C367.044 169.692 366.986 170.075 366.986 170.375C366.986 170.725 367.144 170.9 367.461 170.9C367.694 170.9 367.961 170.792 368.261 170.575C368.577 170.358 368.936 170.067 369.336 169.7L369.536 169.9C369.286 170.3 368.969 170.692 368.586 171.075C368.219 171.442 367.802 171.75 367.336 172C366.886 172.25 366.402 172.375 365.886 172.375C365.319 172.375 364.861 172.208 364.511 171.875C364.161 171.525 363.986 170.992 363.986 170.275C363.986 170.042 363.994 169.817 364.011 169.6C363.344 170.35 362.636 171 361.886 171.55C361.152 172.1 360.452 172.375 359.786 172.375ZM360.011 167.875C360.011 168.758 360.152 169.4 360.436 169.8C360.736 170.183 361.127 170.375 361.611 170.375C362.011 170.375 362.411 170.25 362.811 170C363.211 169.75 363.644 169.392 364.111 168.925C364.144 168.725 364.186 168.517 364.236 168.3L365.811 161.1C365.594 160.833 365.336 160.65 365.036 160.55C364.736 160.45 364.469 160.4 364.236 160.4C363.519 160.4 362.769 160.825 361.986 161.675C361.369 162.358 360.886 163.258 360.536 164.375C360.186 165.492 360.011 166.658 360.011 167.875ZM371.525 172.175L371.275 172L373.175 162.85C373.259 162.417 373.234 162.1 373.1 161.9C372.967 161.683 372.742 161.508 372.425 161.375L372.05 161.2L372.1 160.95L376.45 159.575L376.7 159.8L376.025 163.925C376.375 163.125 376.784 162.4 377.25 161.75C377.717 161.1 378.209 160.583 378.725 160.2C379.242 159.8 379.759 159.6 380.275 159.6C380.792 159.6 381.209 159.742 381.525 160.025C381.842 160.292 382 160.65 382 161.1C382 161.567 381.859 161.95 381.575 162.25C381.309 162.55 380.942 162.7 380.475 162.7C380.109 162.7 379.759 162.608 379.425 162.425C379.092 162.225 378.767 161.942 378.45 161.575C377.867 162.008 377.367 162.575 376.95 163.275C376.534 163.958 376.15 164.708 375.8 165.525L375.55 166.675C375.367 167.558 375.192 168.442 375.025 169.325C374.859 170.208 374.692 171.1 374.525 172L371.525 172.175ZM386.312 172.375C385.062 172.375 384.045 171.967 383.262 171.15C382.479 170.333 382.087 169.175 382.087 167.675C382.087 166.608 382.27 165.592 382.637 164.625C383.004 163.658 383.512 162.8 384.162 162.05C384.829 161.283 385.595 160.683 386.462 160.25C387.329 159.817 388.27 159.6 389.287 159.6C390.337 159.6 391.137 159.842 391.687 160.325C392.254 160.792 392.537 161.417 392.537 162.2C392.537 162.85 392.229 163.492 391.612 164.125C391.012 164.758 390.162 165.333 389.062 165.85C387.962 166.35 386.67 166.733 385.187 167C385.204 168.15 385.454 168.992 385.937 169.525C386.42 170.058 387.087 170.325 387.937 170.325C388.654 170.325 389.312 170.133 389.912 169.75C390.512 169.35 391.02 168.883 391.437 168.35L391.687 168.525C391.354 169.175 390.92 169.792 390.387 170.375C389.87 170.958 389.27 171.442 388.587 171.825C387.904 172.192 387.145 172.375 386.312 172.375ZM389.112 160.275C388.729 160.275 388.312 160.442 387.862 160.775C387.429 161.108 387.012 161.567 386.612 162.15C386.229 162.717 385.904 163.375 385.637 164.125C385.387 164.858 385.237 165.642 385.187 166.475C387.02 165.975 388.32 165.317 389.087 164.5C389.87 163.683 390.262 162.758 390.262 161.725C390.262 161.225 390.154 160.858 389.937 160.625C389.72 160.392 389.445 160.275 389.112 160.275ZM399.856 172.175L399.631 172L401.556 162.8C401.706 162.15 401.473 161.683 400.856 161.4L400.431 161.2L400.456 160.95L405.106 159.575L405.331 159.775L404.756 162.8C405.623 161.817 406.506 161.042 407.406 160.475C408.306 159.892 409.156 159.6 409.956 159.6C410.489 159.6 410.931 159.767 411.281 160.1C411.631 160.417 411.806 160.917 411.806 161.6C411.806 161.95 411.773 162.317 411.706 162.7C411.639 163.067 411.556 163.45 411.456 163.85L410.131 169.175C410.064 169.442 410.014 169.667 409.981 169.85C409.948 170.017 409.931 170.167 409.931 170.3C409.931 170.65 410.073 170.825 410.356 170.825C410.823 170.825 411.414 170.45 412.131 169.7L412.381 169.95C411.964 170.567 411.414 171.125 410.731 171.625C410.048 172.125 409.289 172.375 408.456 172.375C407.906 172.375 407.481 172.25 407.181 172C406.881 171.733 406.731 171.367 406.731 170.9C406.731 170.55 406.773 170.192 406.856 169.825C406.939 169.442 407.031 169.05 407.131 168.65L408.106 164.75C408.239 164.217 408.348 163.742 408.431 163.325C408.514 162.908 408.556 162.525 408.556 162.175C408.556 161.875 408.489 161.667 408.356 161.55C408.223 161.417 408.039 161.35 407.806 161.35C407.406 161.35 406.931 161.525 406.381 161.875C405.848 162.225 405.256 162.775 404.606 163.525L403.906 166.675C403.723 167.558 403.548 168.442 403.381 169.325C403.214 170.208 403.048 171.1 402.881 172L399.856 172.175ZM418.949 172.375C418.083 172.375 417.291 172.208 416.574 171.875C415.858 171.525 415.291 171.008 414.874 170.325C414.458 169.625 414.249 168.742 414.249 167.675C414.249 166.608 414.424 165.592 414.774 164.625C415.141 163.658 415.649 162.8 416.299 162.05C416.949 161.283 417.708 160.683 418.574 160.25C419.441 159.817 420.383 159.6 421.399 159.6C422.283 159.6 423.066 159.775 423.749 160.125C424.449 160.458 424.999 160.967 425.399 161.65C425.816 162.333 426.024 163.208 426.024 164.275C426.024 165.325 425.841 166.342 425.474 167.325C425.124 168.292 424.624 169.158 423.974 169.925C423.341 170.675 422.591 171.275 421.724 171.725C420.874 172.158 419.949 172.375 418.949 172.375ZM419.249 171.875C419.766 171.875 420.233 171.642 420.649 171.175C421.083 170.692 421.458 170.058 421.774 169.275C422.091 168.475 422.333 167.6 422.499 166.65C422.666 165.683 422.749 164.725 422.749 163.775C422.749 162.392 422.608 161.433 422.324 160.9C422.041 160.367 421.674 160.1 421.224 160.1C420.691 160.1 420.199 160.333 419.749 160.8C419.299 161.267 418.908 161.892 418.574 162.675C418.241 163.458 417.983 164.325 417.799 165.275C417.616 166.225 417.524 167.175 417.524 168.125C417.524 169.542 417.691 170.525 418.024 171.075C418.358 171.608 418.766 171.875 419.249 171.875ZM430.235 172.375C429.719 172.375 429.285 172.242 428.935 171.975C428.602 171.692 428.435 171.283 428.435 170.75C428.435 170.417 428.469 170.058 428.535 169.675C428.602 169.275 428.677 168.85 428.76 168.4L430.485 160.5H428.41L428.485 160.2L429.385 160.1C429.852 160.05 430.26 159.933 430.61 159.75C430.96 159.567 431.294 159.308 431.61 158.975L434.01 156.55H434.385L433.685 159.975H436.41L436.285 160.5H433.56L431.835 168.825C431.769 169.142 431.719 169.417 431.685 169.65C431.652 169.867 431.635 170.05 431.635 170.2C431.635 170.367 431.685 170.5 431.785 170.6C431.885 170.7 431.994 170.75 432.11 170.75C432.344 170.75 432.594 170.658 432.86 170.475C433.127 170.275 433.46 169.983 433.86 169.6L434.16 169.85C433.744 170.467 433.202 171.042 432.535 171.575C431.869 172.108 431.102 172.375 430.235 172.375ZM445.298 172.375C444.781 172.375 444.348 172.242 443.998 171.975C443.664 171.692 443.498 171.283 443.498 170.75C443.498 170.417 443.531 170.058 443.598 169.675C443.664 169.275 443.739 168.85 443.823 168.4L445.548 160.5H443.473L443.548 160.2L444.448 160.1C444.914 160.05 445.323 159.933 445.673 159.75C446.023 159.567 446.356 159.308 446.673 158.975L449.073 156.55H449.448L448.748 159.975H451.473L451.348 160.5H448.623L446.898 168.825C446.831 169.142 446.781 169.417 446.748 169.65C446.714 169.867 446.698 170.05 446.698 170.2C446.698 170.367 446.748 170.5 446.848 170.6C446.948 170.7 447.056 170.75 447.173 170.75C447.406 170.75 447.656 170.658 447.923 170.475C448.189 170.275 448.523 169.983 448.923 169.6L449.223 169.85C448.806 170.467 448.264 171.042 447.598 171.575C446.931 172.108 446.164 172.375 445.298 172.375ZM451.421 172.15L451.271 172L453.546 161.1C453.68 160.467 453.796 159.9 453.896 159.4C453.996 158.883 454.105 158.308 454.221 157.675C454.355 156.958 454.08 156.483 453.396 156.25L452.996 156.125L453.046 155.875L457.821 154.475L457.996 154.65L456.296 162.625C457.13 161.758 458.013 161.042 458.946 160.475C459.896 159.892 460.771 159.6 461.571 159.6C462.105 159.6 462.538 159.767 462.871 160.1C463.221 160.417 463.396 160.917 463.396 161.6C463.396 161.95 463.363 162.317 463.296 162.7C463.23 163.067 463.146 163.45 463.046 163.85L461.796 168.95C461.73 169.267 461.663 169.542 461.596 169.775C461.53 169.992 461.496 170.167 461.496 170.3C461.496 170.65 461.646 170.825 461.946 170.825C462.38 170.825 462.988 170.458 463.771 169.725L463.996 169.95C463.596 170.567 463.055 171.125 462.371 171.625C461.688 172.125 460.913 172.375 460.046 172.375C459.496 172.375 459.071 172.25 458.771 172C458.471 171.733 458.321 171.367 458.321 170.9C458.321 170.55 458.363 170.192 458.446 169.825C458.53 169.442 458.63 169.05 458.746 168.65L459.871 164.25C459.988 163.8 460.088 163.392 460.171 163.025C460.271 162.642 460.321 162.317 460.321 162.05C460.321 161.467 460.046 161.175 459.496 161.175C458.68 161.175 457.605 161.842 456.271 163.175L455.521 166.65C455.305 167.667 455.113 168.592 454.946 169.425C454.796 170.242 454.646 171.1 454.496 172L451.421 172.15ZM470.219 172.375C468.969 172.375 467.953 171.967 467.169 171.15C466.386 170.333 465.994 169.175 465.994 167.675C465.994 166.608 466.178 165.592 466.544 164.625C466.911 163.658 467.419 162.8 468.069 162.05C468.736 161.283 469.503 160.683 470.369 160.25C471.236 159.817 472.178 159.6 473.194 159.6C474.244 159.6 475.044 159.842 475.594 160.325C476.161 160.792 476.444 161.417 476.444 162.2C476.444 162.85 476.136 163.492 475.519 164.125C474.919 164.758 474.069 165.333 472.969 165.85C471.869 166.35 470.578 166.733 469.094 167C469.111 168.15 469.361 168.992 469.844 169.525C470.328 170.058 470.994 170.325 471.844 170.325C472.561 170.325 473.219 170.133 473.819 169.75C474.419 169.35 474.928 168.883 475.344 168.35L475.594 168.525C475.261 169.175 474.828 169.792 474.294 170.375C473.778 170.958 473.178 171.442 472.494 171.825C471.811 172.192 471.053 172.375 470.219 172.375ZM473.019 160.275C472.636 160.275 472.219 160.442 471.769 160.775C471.336 161.108 470.919 161.567 470.519 162.15C470.136 162.717 469.811 163.375 469.544 164.125C469.294 164.858 469.144 165.642 469.094 166.475C470.928 165.975 472.228 165.317 472.994 164.5C473.778 163.683 474.169 162.758 474.169 161.725C474.169 161.225 474.061 160.858 473.844 160.625C473.628 160.392 473.353 160.275 473.019 160.275ZM486.338 172.375C485.672 172.375 485.08 172.117 484.563 171.6C484.063 171.083 483.813 170.183 483.813 168.9C483.813 168.033 483.98 167.158 484.313 166.275C484.647 165.392 485.088 164.558 485.638 163.775C486.205 162.975 486.838 162.258 487.538 161.625C488.255 160.992 488.997 160.5 489.763 160.15C490.53 159.783 491.28 159.6 492.013 159.6C492.347 159.6 492.663 159.65 492.963 159.75L493.338 157.875C493.488 157.125 493.213 156.617 492.513 156.35L491.963 156.125L492.013 155.875L496.863 154.475L497.038 154.65L493.963 169.2C493.913 169.467 493.872 169.692 493.838 169.875C493.822 170.042 493.813 170.208 493.813 170.375C493.813 170.725 493.955 170.9 494.238 170.9C494.438 170.9 494.705 170.8 495.038 170.6C495.388 170.383 495.738 170.067 496.088 169.65L496.363 169.9C495.963 170.567 495.422 171.15 494.738 171.65C494.055 172.133 493.33 172.375 492.563 172.375C492.013 172.375 491.58 172.2 491.263 171.85C490.947 171.483 490.788 171.017 490.788 170.45C490.788 170.167 490.813 169.833 490.863 169.45C490.18 170.317 489.43 171.025 488.613 171.575C487.813 172.108 487.055 172.375 486.338 172.375ZM486.863 168.1C486.863 168.933 486.997 169.533 487.263 169.9C487.53 170.267 487.88 170.45 488.313 170.45C489.08 170.45 489.963 169.867 490.963 168.7C490.98 168.617 490.997 168.525 491.013 168.425L492.538 161.05C492.122 160.667 491.63 160.475 491.063 160.475C490.647 160.475 490.255 160.575 489.888 160.775C489.538 160.958 489.205 161.225 488.888 161.575C488.505 162.008 488.155 162.592 487.838 163.325C487.538 164.042 487.297 164.825 487.113 165.675C486.947 166.508 486.863 167.317 486.863 168.1ZM502.31 172.375C501.06 172.375 500.043 171.967 499.26 171.15C498.477 170.333 498.085 169.175 498.085 167.675C498.085 166.608 498.268 165.592 498.635 164.625C499.002 163.658 499.51 162.8 500.16 162.05C500.827 161.283 501.593 160.683 502.46 160.25C503.327 159.817 504.268 159.6 505.285 159.6C506.335 159.6 507.135 159.842 507.685 160.325C508.252 160.792 508.535 161.417 508.535 162.2C508.535 162.85 508.227 163.492 507.61 164.125C507.01 164.758 506.16 165.333 505.06 165.85C503.96 166.35 502.668 166.733 501.185 167C501.202 168.15 501.452 168.992 501.935 169.525C502.418 170.058 503.085 170.325 503.935 170.325C504.652 170.325 505.31 170.133 505.91 169.75C506.51 169.35 507.018 168.883 507.435 168.35L507.685 168.525C507.352 169.175 506.918 169.792 506.385 170.375C505.868 170.958 505.268 171.442 504.585 171.825C503.902 172.192 503.143 172.375 502.31 172.375ZM505.11 160.275C504.727 160.275 504.31 160.442 503.86 160.775C503.427 161.108 503.01 161.567 502.61 162.15C502.227 162.717 501.902 163.375 501.635 164.125C501.385 164.858 501.235 165.642 501.185 166.475C503.018 165.975 504.318 165.317 505.085 164.5C505.868 163.683 506.26 162.758 506.26 161.725C506.26 161.225 506.152 160.858 505.935 160.625C505.718 160.392 505.443 160.275 505.11 160.275ZM512.311 172.375C511.795 172.375 511.361 172.242 511.011 171.975C510.678 171.692 510.511 171.283 510.511 170.75C510.511 170.417 510.545 170.058 510.611 169.675C510.678 169.275 510.753 168.85 510.836 168.4L512.561 160.5H510.486L510.561 160.2L511.461 160.1C511.928 160.05 512.336 159.933 512.686 159.75C513.036 159.567 513.37 159.308 513.686 158.975L516.086 156.55H516.461L515.761 159.975H518.486L518.361 160.5H515.636L513.911 168.825C513.845 169.142 513.795 169.417 513.761 169.65C513.728 169.867 513.711 170.05 513.711 170.2C513.711 170.367 513.761 170.5 513.861 170.6C513.961 170.7 514.07 170.75 514.186 170.75C514.42 170.75 514.67 170.658 514.936 170.475C515.203 170.275 515.536 169.983 515.936 169.6L516.236 169.85C515.82 170.467 515.278 171.042 514.611 171.575C513.945 172.108 513.178 172.375 512.311 172.375ZM521.363 172.375C520.896 172.375 520.454 172.267 520.038 172.05C519.621 171.833 519.279 171.475 519.013 170.975C518.763 170.475 518.638 169.817 518.638 169C518.638 168.117 518.813 167.233 519.163 166.35C519.513 165.45 519.979 164.6 520.563 163.8C521.146 162.983 521.796 162.267 522.513 161.65C523.229 161.017 523.971 160.517 524.738 160.15C525.504 159.783 526.229 159.6 526.913 159.6C527.246 159.6 527.554 159.667 527.838 159.8C528.138 159.917 528.421 160.083 528.688 160.3L530.713 159.525L530.913 159.65L528.738 169.225C528.621 169.692 528.563 170.075 528.563 170.375C528.563 170.725 528.721 170.9 529.038 170.9C529.271 170.9 529.538 170.792 529.838 170.575C530.154 170.358 530.513 170.067 530.913 169.7L531.113 169.9C530.863 170.3 530.546 170.692 530.163 171.075C529.796 171.442 529.379 171.75 528.913 172C528.463 172.25 527.979 172.375 527.463 172.375C526.896 172.375 526.438 172.208 526.088 171.875C525.738 171.525 525.563 170.992 525.563 170.275C525.563 170.042 525.571 169.817 525.588 169.6C524.921 170.35 524.213 171 523.463 171.55C522.729 172.1 522.029 172.375 521.363 172.375ZM521.588 167.875C521.588 168.758 521.729 169.4 522.013 169.8C522.313 170.183 522.704 170.375 523.188 170.375C523.588 170.375 523.988 170.25 524.388 170C524.788 169.75 525.221 169.392 525.688 168.925C525.721 168.725 525.763 168.517 525.813 168.3L527.388 161.1C527.171 160.833 526.913 160.65 526.613 160.55C526.313 160.45 526.046 160.4 525.813 160.4C525.096 160.4 524.346 160.825 523.563 161.675C522.946 162.358 522.463 163.258 522.113 164.375C521.763 165.492 521.588 166.658 521.588 167.875ZM537.378 158.2C536.911 158.2 536.503 158.05 536.153 157.75C535.819 157.433 535.653 157.017 535.653 156.5C535.653 155.917 535.853 155.442 536.253 155.075C536.669 154.692 537.136 154.5 537.653 154.5C538.153 154.5 538.561 154.658 538.878 154.975C539.194 155.292 539.353 155.7 539.353 156.2C539.353 156.767 539.153 157.242 538.753 157.625C538.353 158.008 537.894 158.2 537.378 158.2ZM535.053 172.375C534.536 172.375 534.111 172.242 533.778 171.975C533.444 171.708 533.278 171.317 533.278 170.8C533.278 170.5 533.311 170.142 533.378 169.725C533.444 169.308 533.519 168.892 533.603 168.475L534.778 162.85C534.928 162.167 534.686 161.683 534.053 161.4L533.653 161.2L533.678 160.925L538.378 159.575L538.628 159.8L536.678 168.85C536.611 169.15 536.561 169.408 536.528 169.625C536.494 169.825 536.478 170.025 536.478 170.225C536.478 170.592 536.644 170.775 536.978 170.775C537.228 170.775 537.478 170.7 537.728 170.55C537.978 170.383 538.294 170.117 538.678 169.75L538.903 169.975C538.486 170.592 537.953 171.15 537.303 171.65C536.669 172.133 535.919 172.375 535.053 172.375ZM542.532 172.375C541.982 172.375 541.54 172.233 541.207 171.95C540.89 171.667 540.732 171.258 540.732 170.725C540.732 170.425 540.765 170.067 540.832 169.65C540.898 169.217 540.998 168.667 541.132 168L542.557 161.1C542.69 160.467 542.798 159.892 542.882 159.375C542.982 158.858 543.09 158.275 543.207 157.625C543.323 156.958 543.057 156.508 542.407 156.275L541.982 156.125L542.032 155.875L546.932 154.475L547.082 154.65L544.007 169.15C543.957 169.4 543.915 169.625 543.882 169.825C543.848 170.008 543.832 170.167 543.832 170.3C543.832 170.667 543.99 170.85 544.307 170.85C544.723 170.85 545.332 170.475 546.132 169.725L546.382 169.925C545.965 170.542 545.44 171.108 544.807 171.625C544.173 172.125 543.415 172.375 542.532 172.375ZM551.192 172.375C550.142 172.375 549.292 172.167 548.642 171.75C547.992 171.333 547.667 170.742 547.667 169.975C547.667 169.575 547.809 169.225 548.092 168.925C548.376 168.625 548.742 168.475 549.192 168.475C550.026 168.475 550.542 168.983 550.742 170L550.892 170.7C550.976 171.05 551.076 171.333 551.192 171.55C551.326 171.767 551.576 171.875 551.942 171.875C552.359 171.875 552.726 171.7 553.042 171.35C553.359 171 553.517 170.517 553.517 169.9C553.517 169.433 553.367 168.983 553.067 168.55C552.784 168.117 552.301 167.642 551.617 167.125C550.934 166.592 550.384 166.042 549.967 165.475C549.551 164.892 549.342 164.2 549.342 163.4C549.342 162.7 549.517 162.067 549.867 161.5C550.234 160.917 550.759 160.458 551.442 160.125C552.126 159.775 552.934 159.6 553.867 159.6C554.951 159.6 555.801 159.817 556.417 160.25C557.051 160.683 557.367 161.242 557.367 161.925C557.367 162.292 557.259 162.6 557.042 162.85C556.826 163.083 556.501 163.2 556.067 163.2C555.267 163.2 554.726 162.717 554.442 161.75L554.192 161.05C554.109 160.717 554.009 160.483 553.892 160.35C553.776 160.217 553.592 160.15 553.342 160.15C553.076 160.15 552.801 160.3 552.517 160.6C552.234 160.883 552.092 161.342 552.092 161.975C552.092 162.575 552.267 163.125 552.617 163.625C552.984 164.108 553.526 164.617 554.242 165.15C554.976 165.7 555.509 166.233 555.842 166.75C556.192 167.267 556.367 167.892 556.367 168.625C556.367 169.308 556.167 169.933 555.767 170.5C555.367 171.067 554.784 171.525 554.017 171.875C553.251 172.208 552.309 172.375 551.192 172.375ZM561.067 172.325C560.5 172.325 560.033 172.15 559.667 171.8C559.317 171.433 559.142 171 559.142 170.5C559.142 169.867 559.367 169.333 559.817 168.9C560.283 168.467 560.817 168.25 561.417 168.25C561.983 168.25 562.442 168.433 562.792 168.8C563.158 169.167 563.342 169.608 563.342 170.125C563.342 170.742 563.108 171.267 562.642 171.7C562.192 172.117 561.667 172.325 561.067 172.325ZM279.013 203L279.063 202.75L279.663 202.525C280.43 202.208 280.897 201.642 281.063 200.825L282.288 194.25C282.422 193.55 282.563 192.775 282.713 191.925C282.88 191.058 283.038 190.2 283.188 189.35C283.338 188.483 283.472 187.7 283.588 187H282.513C281.913 187 281.397 187.108 280.963 187.325C280.53 187.542 280.138 187.892 279.788 188.375L277.788 191.1H277.538L278.463 186.5H292.313L291.513 191.1H291.263L290.338 188.575C289.972 187.525 289.213 187 288.063 187H287.038L285.488 195.225C285.322 196.075 285.147 196.992 284.963 197.975C284.797 198.942 284.63 199.883 284.463 200.8C284.313 201.667 284.638 202.267 285.438 202.6L285.763 202.75L285.713 203H279.013ZM292.004 203.15L291.854 203L294.129 192.1C294.263 191.467 294.379 190.9 294.479 190.4C294.579 189.883 294.688 189.308 294.804 188.675C294.938 187.958 294.663 187.483 293.979 187.25L293.579 187.125L293.629 186.875L298.404 185.475L298.579 185.65L296.879 193.625C297.713 192.758 298.596 192.042 299.529 191.475C300.479 190.892 301.354 190.6 302.154 190.6C302.688 190.6 303.121 190.767 303.454 191.1C303.804 191.417 303.979 191.917 303.979 192.6C303.979 192.95 303.946 193.317 303.879 193.7C303.813 194.067 303.729 194.45 303.629 194.85L302.379 199.95C302.313 200.267 302.246 200.542 302.179 200.775C302.113 200.992 302.079 201.167 302.079 201.3C302.079 201.65 302.229 201.825 302.529 201.825C302.963 201.825 303.571 201.458 304.354 200.725L304.579 200.95C304.179 201.567 303.638 202.125 302.954 202.625C302.271 203.125 301.496 203.375 300.629 203.375C300.079 203.375 299.654 203.25 299.354 203C299.054 202.733 298.904 202.367 298.904 201.9C298.904 201.55 298.946 201.192 299.029 200.825C299.113 200.442 299.213 200.05 299.329 199.65L300.454 195.25C300.571 194.8 300.671 194.392 300.754 194.025C300.854 193.642 300.904 193.317 300.904 193.05C300.904 192.467 300.629 192.175 300.079 192.175C299.263 192.175 298.188 192.842 296.854 194.175L296.104 197.65C295.888 198.667 295.696 199.592 295.529 200.425C295.379 201.242 295.229 202.1 295.079 203L292.004 203.15ZM310.802 203.375C309.552 203.375 308.536 202.967 307.752 202.15C306.969 201.333 306.577 200.175 306.577 198.675C306.577 197.608 306.761 196.592 307.127 195.625C307.494 194.658 308.002 193.8 308.652 193.05C309.319 192.283 310.086 191.683 310.952 191.25C311.819 190.817 312.761 190.6 313.777 190.6C314.827 190.6 315.627 190.842 316.177 191.325C316.744 191.792 317.027 192.417 317.027 193.2C317.027 193.85 316.719 194.492 316.102 195.125C315.502 195.758 314.652 196.333 313.552 196.85C312.452 197.35 311.161 197.733 309.677 198C309.694 199.15 309.944 199.992 310.427 200.525C310.911 201.058 311.577 201.325 312.427 201.325C313.144 201.325 313.802 201.133 314.402 200.75C315.002 200.35 315.511 199.883 315.927 199.35L316.177 199.525C315.844 200.175 315.411 200.792 314.877 201.375C314.361 201.958 313.761 202.442 313.077 202.825C312.394 203.192 311.636 203.375 310.802 203.375ZM313.602 191.275C313.219 191.275 312.802 191.442 312.352 191.775C311.919 192.108 311.502 192.567 311.102 193.15C310.719 193.717 310.394 194.375 310.127 195.125C309.877 195.858 309.727 196.642 309.677 197.475C311.511 196.975 312.811 196.317 313.577 195.5C314.361 194.683 314.752 193.758 314.752 192.725C314.752 192.225 314.644 191.858 314.427 191.625C314.211 191.392 313.936 191.275 313.602 191.275ZM317.704 208.75C317.104 208.75 316.612 208.592 316.229 208.275C315.829 207.958 315.629 207.542 315.629 207.025C315.629 206.592 315.787 206.225 316.104 205.925C316.404 205.642 316.779 205.5 317.229 205.5C317.762 205.5 318.254 205.7 318.704 206.1C319.054 206.417 319.395 206.608 319.729 206.675C320.079 206.742 320.437 206.642 320.804 206.375C321.037 206.208 321.254 206.025 321.454 205.825C321.67 205.642 321.887 205.433 322.104 205.2C322.154 205.15 322.204 205.1 322.254 205.05C322.004 203.267 321.754 201.55 321.504 199.9C321.254 198.25 320.995 196.542 320.729 194.775C320.645 194.142 320.562 193.675 320.479 193.375C320.395 193.075 320.304 192.883 320.204 192.8C320.12 192.7 320.012 192.65 319.879 192.65C319.712 192.65 319.52 192.725 319.304 192.875C319.104 193.025 318.87 193.283 318.604 193.65L318.279 193.325C319.445 191.508 320.629 190.6 321.829 190.6C322.462 190.6 322.912 190.808 323.179 191.225C323.462 191.642 323.645 192.308 323.729 193.225C323.895 194.775 324.054 196.258 324.204 197.675C324.354 199.075 324.487 200.558 324.604 202.125C325.187 200.742 325.679 199.367 326.079 198C326.479 196.617 326.87 195.125 327.254 193.525C327.537 192.358 327.837 191.567 328.154 191.15C328.487 190.733 328.929 190.525 329.479 190.525C329.845 190.525 330.17 190.642 330.454 190.875C330.737 191.108 330.879 191.417 330.879 191.8C330.879 192.217 330.795 192.608 330.629 192.975C330.479 193.325 330.262 193.767 329.979 194.3C329.712 194.817 329.42 195.358 329.104 195.925C328.787 196.492 328.412 197.125 327.979 197.825C327.512 198.558 327.012 199.35 326.479 200.2C325.962 201.033 325.354 201.942 324.654 202.925C324.27 203.442 323.862 203.983 323.429 204.55C323.012 205.117 322.487 205.725 321.854 206.375C321.187 207.092 320.504 207.667 319.804 208.1C319.12 208.533 318.42 208.75 317.704 208.75ZM340.908 203L337.858 203.175L337.658 203L339.583 193.8C339.733 193.133 339.5 192.675 338.883 192.425L338.433 192.2L338.483 191.95L343.133 190.575L343.358 190.8L342.833 193.5C343.683 192.617 344.55 191.917 345.433 191.4C346.317 190.867 347.142 190.6 347.908 190.6C348.442 190.6 348.883 190.767 349.233 191.1C349.583 191.417 349.758 191.917 349.758 192.6C349.758 192.75 349.75 192.9 349.733 193.05C349.717 193.2 349.7 193.358 349.683 193.525C350.517 192.625 351.358 191.917 352.208 191.4C353.075 190.867 353.9 190.6 354.683 190.6C355.217 190.6 355.65 190.767 355.983 191.1C356.333 191.417 356.508 191.917 356.508 192.6C356.508 192.95 356.475 193.317 356.408 193.7C356.342 194.067 356.258 194.45 356.158 194.85L354.858 200.2C354.792 200.467 354.733 200.692 354.683 200.875C354.633 201.058 354.608 201.217 354.608 201.35C354.608 201.7 354.75 201.875 355.033 201.875C355.283 201.875 355.558 201.775 355.858 201.575C356.175 201.358 356.517 201.067 356.883 200.7L357.133 200.95C356.9 201.317 356.592 201.692 356.208 202.075C355.825 202.442 355.375 202.75 354.858 203C354.358 203.25 353.792 203.375 353.158 203.375C352.608 203.375 352.183 203.25 351.883 203C351.583 202.733 351.433 202.367 351.433 201.9C351.433 201.55 351.475 201.192 351.558 200.825C351.642 200.442 351.742 200.05 351.858 199.65L352.883 195.425C352.983 194.992 353.067 194.592 353.133 194.225C353.217 193.858 353.258 193.558 353.258 193.325C353.258 192.742 352.992 192.45 352.458 192.45C351.692 192.45 350.725 193.025 349.558 194.175C349.542 194.208 349.525 194.25 349.508 194.3C349.508 194.333 349.508 194.375 349.508 194.425L348.808 197.675C348.625 198.558 348.45 199.442 348.283 200.325C348.117 201.208 347.942 202.1 347.758 203L344.733 203.175L344.533 203L346.208 195.075C346.275 194.742 346.333 194.433 346.383 194.15C346.433 193.85 346.458 193.592 346.458 193.375C346.458 192.825 346.208 192.55 345.708 192.55C344.858 192.55 343.858 193.092 342.708 194.175L341.933 197.675C341.75 198.558 341.575 199.442 341.408 200.325C341.242 201.208 341.075 202.1 340.908 203ZM361.714 203.375C361.248 203.375 360.806 203.267 360.389 203.05C359.973 202.833 359.631 202.475 359.364 201.975C359.114 201.475 358.989 200.817 358.989 200C358.989 199.117 359.164 198.233 359.514 197.35C359.864 196.45 360.331 195.6 360.914 194.8C361.498 193.983 362.148 193.267 362.864 192.65C363.581 192.017 364.323 191.517 365.089 191.15C365.856 190.783 366.581 190.6 367.264 190.6C367.598 190.6 367.906 190.667 368.189 190.8C368.489 190.917 368.773 191.083 369.039 191.3L371.064 190.525L371.264 190.65L369.089 200.225C368.973 200.692 368.914 201.075 368.914 201.375C368.914 201.725 369.073 201.9 369.389 201.9C369.623 201.9 369.889 201.792 370.189 201.575C370.506 201.358 370.864 201.067 371.264 200.7L371.464 200.9C371.214 201.3 370.898 201.692 370.514 202.075C370.148 202.442 369.731 202.75 369.264 203C368.814 203.25 368.331 203.375 367.814 203.375C367.248 203.375 366.789 203.208 366.439 202.875C366.089 202.525 365.914 201.992 365.914 201.275C365.914 201.042 365.923 200.817 365.939 200.6C365.273 201.35 364.564 202 363.814 202.55C363.081 203.1 362.381 203.375 361.714 203.375ZM361.939 198.875C361.939 199.758 362.081 200.4 362.364 200.8C362.664 201.183 363.056 201.375 363.539 201.375C363.939 201.375 364.339 201.25 364.739 201C365.139 200.75 365.573 200.392 366.039 199.925C366.073 199.725 366.114 199.517 366.164 199.3L367.739 192.1C367.523 191.833 367.264 191.65 366.964 191.55C366.664 191.45 366.398 191.4 366.164 191.4C365.448 191.4 364.698 191.825 363.914 192.675C363.298 193.358 362.814 194.258 362.464 195.375C362.114 196.492 361.939 197.658 361.939 198.875ZM373.231 203.2L372.906 202.925L375.156 192.1C375.273 191.517 375.389 190.942 375.506 190.375C375.623 189.808 375.731 189.233 375.831 188.65C375.931 187.95 375.664 187.492 375.031 187.275L374.606 187.1L374.656 186.875L379.456 185.475L379.631 185.65L377.131 197.65C376.914 198.667 376.723 199.592 376.556 200.425C376.406 201.242 376.256 202.1 376.106 203L373.231 203.2ZM380.006 203C379.773 202.767 379.556 202.408 379.356 201.925C379.156 201.442 378.964 200.967 378.781 200.5L377.381 196.65L383.606 190.75C384.056 190.767 384.439 190.908 384.756 191.175C385.073 191.442 385.231 191.817 385.231 192.3C385.231 192.733 385.056 193.1 384.706 193.4C384.356 193.683 383.906 193.958 383.356 194.225L378.381 196.575L382.856 201.725C383.039 201.925 383.206 202.092 383.356 202.225C383.506 202.358 383.689 202.492 383.906 202.625L384.106 202.75L384.056 203H380.006ZM390.096 203.375C388.846 203.375 387.83 202.967 387.046 202.15C386.263 201.333 385.871 200.175 385.871 198.675C385.871 197.608 386.055 196.592 386.421 195.625C386.788 194.658 387.296 193.8 387.946 193.05C388.613 192.283 389.38 191.683 390.246 191.25C391.113 190.817 392.055 190.6 393.071 190.6C394.121 190.6 394.921 190.842 395.471 191.325C396.038 191.792 396.321 192.417 396.321 193.2C396.321 193.85 396.013 194.492 395.396 195.125C394.796 195.758 393.946 196.333 392.846 196.85C391.746 197.35 390.455 197.733 388.971 198C388.988 199.15 389.238 199.992 389.721 200.525C390.205 201.058 390.871 201.325 391.721 201.325C392.438 201.325 393.096 201.133 393.696 200.75C394.296 200.35 394.805 199.883 395.221 199.35L395.471 199.525C395.138 200.175 394.705 200.792 394.171 201.375C393.655 201.958 393.055 202.442 392.371 202.825C391.688 203.192 390.93 203.375 390.096 203.375ZM392.896 191.275C392.513 191.275 392.096 191.442 391.646 191.775C391.213 192.108 390.796 192.567 390.396 193.15C390.013 193.717 389.688 194.375 389.421 195.125C389.171 195.858 389.021 196.642 388.971 197.475C390.805 196.975 392.105 196.317 392.871 195.5C393.655 194.683 394.046 193.758 394.046 192.725C394.046 192.225 393.938 191.858 393.721 191.625C393.505 191.392 393.23 191.275 392.896 191.275ZM406.115 203.375C405.598 203.375 405.165 203.242 404.815 202.975C404.482 202.692 404.315 202.283 404.315 201.75C404.315 201.417 404.348 201.058 404.415 200.675C404.482 200.275 404.557 199.85 404.64 199.4L406.365 191.5H404.29L404.365 191.2L405.265 191.1C405.732 191.05 406.14 190.933 406.49 190.75C406.84 190.567 407.173 190.308 407.49 189.975L409.89 187.55H410.265L409.565 190.975H412.29L412.165 191.5H409.44L407.715 199.825C407.648 200.142 407.598 200.417 407.565 200.65C407.532 200.867 407.515 201.05 407.515 201.2C407.515 201.367 407.565 201.5 407.665 201.6C407.765 201.7 407.873 201.75 407.99 201.75C408.223 201.75 408.473 201.658 408.74 201.475C409.007 201.275 409.34 200.983 409.74 200.6L410.04 200.85C409.623 201.467 409.082 202.042 408.415 202.575C407.748 203.108 406.982 203.375 406.115 203.375ZM412.239 203.15L412.089 203L414.364 192.1C414.497 191.467 414.614 190.9 414.714 190.4C414.814 189.883 414.922 189.308 415.039 188.675C415.172 187.958 414.897 187.483 414.214 187.25L413.814 187.125L413.864 186.875L418.639 185.475L418.814 185.65L417.114 193.625C417.947 192.758 418.83 192.042 419.764 191.475C420.714 190.892 421.589 190.6 422.389 190.6C422.922 190.6 423.355 190.767 423.689 191.1C424.039 191.417 424.214 191.917 424.214 192.6C424.214 192.95 424.18 193.317 424.114 193.7C424.047 194.067 423.964 194.45 423.864 194.85L422.614 199.95C422.547 200.267 422.48 200.542 422.414 200.775C422.347 200.992 422.314 201.167 422.314 201.3C422.314 201.65 422.464 201.825 422.764 201.825C423.197 201.825 423.805 201.458 424.589 200.725L424.814 200.95C424.414 201.567 423.872 202.125 423.189 202.625C422.505 203.125 421.73 203.375 420.864 203.375C420.314 203.375 419.889 203.25 419.589 203C419.289 202.733 419.139 202.367 419.139 201.9C419.139 201.55 419.18 201.192 419.264 200.825C419.347 200.442 419.447 200.05 419.564 199.65L420.689 195.25C420.805 194.8 420.905 194.392 420.989 194.025C421.089 193.642 421.139 193.317 421.139 193.05C421.139 192.467 420.864 192.175 420.314 192.175C419.497 192.175 418.422 192.842 417.089 194.175L416.339 197.65C416.122 198.667 415.93 199.592 415.764 200.425C415.614 201.242 415.464 202.1 415.314 203L412.239 203.15ZM431.037 203.375C429.787 203.375 428.77 202.967 427.987 202.15C427.203 201.333 426.812 200.175 426.812 198.675C426.812 197.608 426.995 196.592 427.362 195.625C427.728 194.658 428.237 193.8 428.887 193.05C429.553 192.283 430.32 191.683 431.187 191.25C432.053 190.817 432.995 190.6 434.012 190.6C435.062 190.6 435.862 190.842 436.412 191.325C436.978 191.792 437.262 192.417 437.262 193.2C437.262 193.85 436.953 194.492 436.337 195.125C435.737 195.758 434.887 196.333 433.787 196.85C432.687 197.35 431.395 197.733 429.912 198C429.928 199.15 430.178 199.992 430.662 200.525C431.145 201.058 431.812 201.325 432.662 201.325C433.378 201.325 434.037 201.133 434.637 200.75C435.237 200.35 435.745 199.883 436.162 199.35L436.412 199.525C436.078 200.175 435.645 200.792 435.112 201.375C434.595 201.958 433.995 202.442 433.312 202.825C432.628 203.192 431.87 203.375 431.037 203.375ZM433.837 191.275C433.453 191.275 433.037 191.442 432.587 191.775C432.153 192.108 431.737 192.567 431.337 193.15C430.953 193.717 430.628 194.375 430.362 195.125C430.112 195.858 429.962 196.642 429.912 197.475C431.745 196.975 433.045 196.317 433.812 195.5C434.595 194.683 434.987 193.758 434.987 192.725C434.987 192.225 434.878 191.858 434.662 191.625C434.445 191.392 434.17 191.275 433.837 191.275ZM447.156 203.375C446.489 203.375 445.897 203.117 445.381 202.6C444.881 202.083 444.631 201.183 444.631 199.9C444.631 199.033 444.797 198.158 445.131 197.275C445.464 196.392 445.906 195.558 446.456 194.775C447.022 193.975 447.656 193.258 448.356 192.625C449.072 191.992 449.814 191.5 450.581 191.15C451.347 190.783 452.097 190.6 452.831 190.6C453.164 190.6 453.481 190.65 453.781 190.75L454.156 188.875C454.306 188.125 454.031 187.617 453.331 187.35L452.781 187.125L452.831 186.875L457.681 185.475L457.856 185.65L454.781 200.2C454.731 200.467 454.689 200.692 454.656 200.875C454.639 201.042 454.631 201.208 454.631 201.375C454.631 201.725 454.772 201.9 455.056 201.9C455.256 201.9 455.522 201.8 455.856 201.6C456.206 201.383 456.556 201.067 456.906 200.65L457.181 200.9C456.781 201.567 456.239 202.15 455.556 202.65C454.872 203.133 454.147 203.375 453.381 203.375C452.831 203.375 452.397 203.2 452.081 202.85C451.764 202.483 451.606 202.017 451.606 201.45C451.606 201.167 451.631 200.833 451.681 200.45C450.997 201.317 450.247 202.025 449.431 202.575C448.631 203.108 447.872 203.375 447.156 203.375ZM447.681 199.1C447.681 199.933 447.814 200.533 448.081 200.9C448.347 201.267 448.697 201.45 449.131 201.45C449.897 201.45 450.781 200.867 451.781 199.7C451.797 199.617 451.814 199.525 451.831 199.425L453.356 192.05C452.939 191.667 452.447 191.475 451.881 191.475C451.464 191.475 451.072 191.575 450.706 191.775C450.356 191.958 450.022 192.225 449.706 192.575C449.322 193.008 448.972 193.592 448.656 194.325C448.356 195.042 448.114 195.825 447.931 196.675C447.764 197.508 447.681 198.317 447.681 199.1ZM463.127 203.375C461.877 203.375 460.861 202.967 460.077 202.15C459.294 201.333 458.902 200.175 458.902 198.675C458.902 197.608 459.086 196.592 459.452 195.625C459.819 194.658 460.327 193.8 460.977 193.05C461.644 192.283 462.411 191.683 463.277 191.25C464.144 190.817 465.086 190.6 466.102 190.6C467.152 190.6 467.952 190.842 468.502 191.325C469.069 191.792 469.352 192.417 469.352 193.2C469.352 193.85 469.044 194.492 468.427 195.125C467.827 195.758 466.977 196.333 465.877 196.85C464.777 197.35 463.486 197.733 462.002 198C462.019 199.15 462.269 199.992 462.752 200.525C463.236 201.058 463.902 201.325 464.752 201.325C465.469 201.325 466.127 201.133 466.727 200.75C467.327 200.35 467.836 199.883 468.252 199.35L468.502 199.525C468.169 200.175 467.736 200.792 467.202 201.375C466.686 201.958 466.086 202.442 465.402 202.825C464.719 203.192 463.961 203.375 463.127 203.375ZM465.927 191.275C465.544 191.275 465.127 191.442 464.677 191.775C464.244 192.108 463.827 192.567 463.427 193.15C463.044 193.717 462.719 194.375 462.452 195.125C462.202 195.858 462.052 196.642 462.002 197.475C463.836 196.975 465.136 196.317 465.902 195.5C466.686 194.683 467.077 193.758 467.077 192.725C467.077 192.225 466.969 191.858 466.752 191.625C466.536 191.392 466.261 191.275 465.927 191.275ZM473.535 203.375C472.485 203.375 471.635 203.167 470.985 202.75C470.335 202.333 470.01 201.742 470.01 200.975C470.01 200.575 470.152 200.225 470.435 199.925C470.719 199.625 471.085 199.475 471.535 199.475C472.369 199.475 472.885 199.983 473.085 201L473.235 201.7C473.319 202.05 473.419 202.333 473.535 202.55C473.669 202.767 473.919 202.875 474.285 202.875C474.702 202.875 475.069 202.7 475.385 202.35C475.702 202 475.86 201.517 475.86 200.9C475.86 200.433 475.71 199.983 475.41 199.55C475.127 199.117 474.644 198.642 473.96 198.125C473.277 197.592 472.727 197.042 472.31 196.475C471.894 195.892 471.685 195.2 471.685 194.4C471.685 193.7 471.86 193.067 472.21 192.5C472.577 191.917 473.102 191.458 473.785 191.125C474.469 190.775 475.277 190.6 476.21 190.6C477.294 190.6 478.144 190.817 478.76 191.25C479.394 191.683 479.71 192.242 479.71 192.925C479.71 193.292 479.602 193.6 479.385 193.85C479.169 194.083 478.844 194.2 478.41 194.2C477.61 194.2 477.069 193.717 476.785 192.75L476.535 192.05C476.452 191.717 476.352 191.483 476.235 191.35C476.119 191.217 475.935 191.15 475.685 191.15C475.419 191.15 475.144 191.3 474.86 191.6C474.577 191.883 474.435 192.342 474.435 192.975C474.435 193.575 474.61 194.125 474.96 194.625C475.327 195.108 475.869 195.617 476.585 196.15C477.319 196.7 477.852 197.233 478.185 197.75C478.535 198.267 478.71 198.892 478.71 199.625C478.71 200.308 478.51 200.933 478.11 201.5C477.71 202.067 477.127 202.525 476.36 202.875C475.594 203.208 474.652 203.375 473.535 203.375ZM485.366 189.2C484.899 189.2 484.491 189.05 484.141 188.75C483.808 188.433 483.641 188.017 483.641 187.5C483.641 186.917 483.841 186.442 484.241 186.075C484.658 185.692 485.124 185.5 485.641 185.5C486.141 185.5 486.549 185.658 486.866 185.975C487.183 186.292 487.341 186.7 487.341 187.2C487.341 187.767 487.141 188.242 486.741 188.625C486.341 189.008 485.883 189.2 485.366 189.2ZM483.041 203.375C482.524 203.375 482.099 203.242 481.766 202.975C481.433 202.708 481.266 202.317 481.266 201.8C481.266 201.5 481.299 201.142 481.366 200.725C481.433 200.308 481.508 199.892 481.591 199.475L482.766 193.85C482.916 193.167 482.674 192.683 482.041 192.4L481.641 192.2L481.666 191.925L486.366 190.575L486.616 190.8L484.666 199.85C484.599 200.15 484.549 200.408 484.516 200.625C484.483 200.825 484.466 201.025 484.466 201.225C484.466 201.592 484.633 201.775 484.966 201.775C485.216 201.775 485.466 201.7 485.716 201.55C485.966 201.383 486.283 201.117 486.666 200.75L486.891 200.975C486.474 201.592 485.941 202.15 485.291 202.65C484.658 203.133 483.908 203.375 483.041 203.375ZM491.395 208.9C489.995 208.9 488.886 208.683 488.07 208.25C487.27 207.817 486.87 207.183 486.87 206.35C486.87 205.833 487.053 205.358 487.42 204.925C487.786 204.508 488.236 204.142 488.77 203.825C489.32 203.508 489.878 203.258 490.445 203.075C489.878 202.925 489.436 202.725 489.12 202.475C488.803 202.208 488.645 201.875 488.645 201.475C488.645 201.075 488.878 200.608 489.345 200.075C489.828 199.525 490.395 199 491.045 198.5C490.561 198.167 490.195 197.75 489.945 197.25C489.695 196.75 489.57 196.225 489.57 195.675C489.57 194.758 489.803 193.917 490.27 193.15C490.736 192.383 491.361 191.767 492.145 191.3C492.945 190.833 493.82 190.6 494.77 190.6C495.403 190.6 495.986 190.692 496.52 190.875C497.07 191.042 497.528 191.3 497.895 191.65C498.428 191.567 498.936 191.442 499.42 191.275C499.92 191.092 500.395 190.867 500.845 190.6L501.02 190.775L500.77 192.075H498.27C498.67 192.608 498.87 193.25 498.87 194C498.87 195.017 498.645 195.917 498.195 196.7C497.761 197.483 497.153 198.1 496.37 198.55C495.586 198.983 494.67 199.2 493.62 199.2C492.82 199.2 492.111 199.05 491.495 198.75L491.12 199.375C490.986 199.575 490.945 199.775 490.995 199.975C491.045 200.175 491.22 200.3 491.52 200.35L495.62 201.175C497.003 201.458 497.97 201.825 498.52 202.275C499.086 202.725 499.37 203.342 499.37 204.125C499.37 205.058 499.02 205.883 498.32 206.6C497.636 207.317 496.695 207.875 495.495 208.275C494.295 208.692 492.928 208.9 491.395 208.9ZM494.07 198.7C494.62 198.7 495.086 198.383 495.47 197.75C495.87 197.117 496.07 196.017 496.07 194.45C496.07 193.383 495.928 192.558 495.645 191.975C495.361 191.392 495.003 191.1 494.57 191.1C493.903 191.117 493.395 191.508 493.045 192.275C492.695 193.025 492.52 194.033 492.52 195.3C492.52 196.217 492.636 197.017 492.87 197.7C493.12 198.383 493.52 198.717 494.07 198.7ZM489.395 205.475C489.395 206.308 489.695 206.958 490.295 207.425C490.895 207.908 491.703 208.15 492.72 208.15C494.003 208.15 495.011 207.933 495.745 207.5C496.478 207.067 496.845 206.442 496.845 205.625C496.845 205.142 496.628 204.758 496.195 204.475C495.778 204.192 495.036 203.95 493.97 203.75L491.045 203.2C490.961 203.183 490.886 203.167 490.82 203.15C490.386 203.417 490.036 203.742 489.77 204.125C489.52 204.525 489.395 204.975 489.395 205.475ZM502.256 203.175L502.031 203L503.956 193.8C504.106 193.15 503.873 192.683 503.256 192.4L502.831 192.2L502.856 191.95L507.506 190.575L507.731 190.775L507.156 193.8C508.023 192.817 508.906 192.042 509.806 191.475C510.706 190.892 511.556 190.6 512.356 190.6C512.89 190.6 513.331 190.767 513.681 191.1C514.031 191.417 514.206 191.917 514.206 192.6C514.206 192.95 514.173 193.317 514.106 193.7C514.04 194.067 513.956 194.45 513.856 194.85L512.531 200.175C512.465 200.442 512.415 200.667 512.381 200.85C512.348 201.017 512.331 201.167 512.331 201.3C512.331 201.65 512.473 201.825 512.756 201.825C513.223 201.825 513.815 201.45 514.531 200.7L514.781 200.95C514.365 201.567 513.815 202.125 513.131 202.625C512.448 203.125 511.69 203.375 510.856 203.375C510.306 203.375 509.881 203.25 509.581 203C509.281 202.733 509.131 202.367 509.131 201.9C509.131 201.55 509.173 201.192 509.256 200.825C509.34 200.442 509.431 200.05 509.531 199.65L510.506 195.75C510.64 195.217 510.748 194.742 510.831 194.325C510.915 193.908 510.956 193.525 510.956 193.175C510.956 192.875 510.89 192.667 510.756 192.55C510.623 192.417 510.44 192.35 510.206 192.35C509.806 192.35 509.331 192.525 508.781 192.875C508.248 193.225 507.656 193.775 507.006 194.525L506.306 197.675C506.123 198.558 505.948 199.442 505.781 200.325C505.615 201.208 505.448 202.1 505.281 203L502.256 203.175ZM518.796 203.325C518.23 203.325 517.763 203.15 517.396 202.8C517.046 202.433 516.871 202 516.871 201.5C516.871 200.867 517.096 200.333 517.546 199.9C518.013 199.467 518.546 199.25 519.146 199.25C519.713 199.25 520.171 199.433 520.521 199.8C520.888 200.167 521.071 200.608 521.071 201.125C521.071 201.742 520.838 202.267 520.371 202.7C519.921 203.117 519.396 203.325 518.796 203.325Z" fill="#CDA274"/>
<path d="M420.752 57.6C425.152 57.6 428.752 59.0667 431.552 62C434.218 64.9333 435.552 68.8667 435.552 73.8C435.552 82.4667 432.685 90 426.952 96.4C421.085 102.8 414.085 108.067 405.952 112.2L403.952 108.8C407.285 106.667 410.418 103.933 413.352 100.6C416.152 97.2667 418.352 93.6667 419.952 89.8L414.352 85.6C412.085 84.1333 410.218 82.1333 408.752 79.6C407.285 77.2 406.552 74.8667 406.552 72.6C406.552 68.3333 407.885 64.7333 410.552 61.8C413.085 59 416.485 57.6 420.752 57.6ZM379.552 57.6C383.952 57.6 387.552 59.0667 390.352 62C393.018 64.9333 394.352 68.8667 394.352 73.8C394.352 82.4667 391.485 90 385.752 96.4C379.885 102.8 372.885 108.067 364.752 112.2L362.752 108.8C366.085 106.667 369.218 103.933 372.152 100.6C374.952 97.2667 377.152 93.6667 378.752 89.8L373.152 85.6C370.885 84.1333 369.018 82.1333 367.552 79.6C366.085 77.2 365.352 74.8667 365.352 72.6C365.352 68.3333 366.685 64.7333 369.352 61.8C371.885 59 375.285 57.6 379.552 57.6Z" fill="#CDA274"/>
</svg>
